<?xml version="1.0" encoding="iso-8859-1"?>
<!-- Generator: Adobe Illustrator 18.0.0, SVG Export Plug-In . SVG Version: 6.00 Build 0)  -->
<!DOCTYPE svg PUBLIC "-//W3C//DTD SVG 1.1//EN" "http://www.w3.org/Graphics/SVG/1.1/DTD/svg11.dtd">
<svg version="1.1" id="Capa_1" xmlns="http://www.w3.org/2000/svg" xmlns:xlink="http://www.w3.org/1999/xlink" x="0px" y="0px"
	 viewBox="0 0 437.356 437.356" style="enable-background:new 0 0 437.356 437.356;" xml:space="preserve">
<g>
	<path d="M435.853,48.36c3.128-8.044,1.297-16.849-4.778-22.98c-6.075-6.13-14.864-8.04-22.937-4.983L332.66,48.976l-64.353,5.548
		c-32.932,2.839-66.326,2.839-99.257,0l-64.353-5.548L29.218,20.397C21.145,17.34,12.357,19.25,6.281,25.38
		C0.206,31.51-1.625,40.316,1.503,48.36l15.904,40.896c9.812,25.231,12.738,52.697,8.461,79.429l-1.053,6.581
		c-1.686,8.656-3.601,17.538-5.453,26.129c-4.26,19.754-8.664,40.18-10.775,60.04c-2.758,25.948,1.715,52.141,12.936,75.747
		c11.204,23.572,28.674,43.599,50.522,57.915c31.804,20.841,69.815,28.026,107.031,20.229l39.603-8.296l39.604,8.296
		c9.799,2.052,19.649,3.067,29.431,3.066c27.368-0.001,54.171-7.943,77.601-23.296c21.847-14.317,39.317-34.343,50.521-57.915
		c11.221-23.606,15.693-49.799,12.936-75.747c-2.111-19.861-6.517-40.289-10.776-60.044c-1.853-8.59-3.768-17.47-5.453-26.126
		l-1.052-6.58c-4.278-26.731-1.352-54.197,8.46-79.429L435.853,48.36z M21.633,50.458l71.728,57.096
		c-20.164,10.909-35.914,29.058-47.982,48.503c1.675-24.899-2.112-49.969-11.195-73.326L21.633,50.458z M354.56,380.617
		c-27.749,17.856-61.604,23.582-93.902,16.817l-40.136-8.407c-0.608-0.127-1.227-0.191-1.845-0.191s-1.237,0.064-1.845,0.191
		l-41.448,8.682c-32.503,6.808-65.7,0.534-93.476-17.667c-39.114-25.631-60.351-70.349-55.423-116.704
		c0.007-0.063,0.014-0.127,0.02-0.19c1.489-13.903,4.513-27.597,8.803-40.904c10.372-32.168,34.511-89.434,78.063-103.82
		c2.428-0.802,4.482-2.56,5.518-4.898c1.71-3.858,0.543-8.224-2.607-10.732l-72.32-57.567l55.529,21.025
		c0.776,0.294,1.588,0.479,2.415,0.55l65.597,5.655c34.053,2.936,68.296,2.936,102.349,0l65.597-5.655
		c0.827-0.071,1.639-0.256,2.415-0.55l55.528-21.025l-72.114,57.403c-2.054,1.635-3.439,4.032-3.588,6.653
		c-0.238,4.189,2.368,7.852,6.179,9.103c43.724,14.357,67.908,71.927,78.249,104.08c4.257,13.236,7.251,26.857,8.732,40.681
		c0.007,0.063,0.014,0.127,0.02,0.19C415.836,310.041,394.24,355.083,354.56,380.617z M403.173,82.731
		c-9.083,23.356-12.87,48.424-11.195,73.321c-12.068-19.444-27.82-37.59-47.983-48.499l71.729-57.096L403.173,82.731z"/>
	<path d="M145.763,250.48c5.729,0,11.222-1.328,16.157-3.702c-0.91,3.848,0.801,7.979,4.44,9.965
		c1.37,0.747,2.847,1.102,4.304,1.102c3.186,0,6.273-1.696,7.908-4.69c12.58-23.048,4.064-52.034-18.984-64.614
		c-23.048-12.58-52.034-4.064-64.614,18.984c-2.381,4.363-0.775,9.83,3.588,12.212c3.363,1.836,7.375,1.295,10.131-1.043
		C111.456,236.669,127.027,250.48,145.763,250.48z M150.964,204.341c6.25,3.411,10.781,8.763,13.257,14.903
		c-2.648,7.786-10.066,13.236-18.458,13.236c-10.755,0-19.505-8.75-19.505-19.505c0-4.15,1.323-8.134,3.739-11.451
		C136.854,199.907,144.307,200.707,150.964,204.341z"/>
	<path d="M277.768,188.541c-23.048,12.58-31.564,41.566-18.984,64.614c1.634,2.994,4.722,4.69,7.908,4.69
		c1.457,0,2.935-0.355,4.304-1.102c3.638-1.986,5.35-6.117,4.44-9.965c4.935,2.374,10.429,3.702,16.157,3.702
		c18.737,0,34.308-13.811,37.07-31.787c2.756,2.338,6.769,2.879,10.131,1.044c4.363-2.381,5.969-7.849,3.588-12.212
		C329.801,184.477,300.814,175.962,277.768,188.541z M291.593,232.48c-8.391,0-15.81-5.45-18.458-13.236
		c2.476-6.139,7.006-11.491,13.257-14.903c6.657-3.634,14.11-4.434,20.968-2.817c2.415,3.317,3.738,7.301,3.738,11.45
		C311.098,223.73,302.348,232.48,291.593,232.48z"/>
	<path d="M306.653,305.736c-4.44,2.235-6.228,7.645-3.993,12.085c3.388,6.731,3.638,14.568,0.687,21.501
		c-1.959,4.604-5.215,8.508-9.416,11.288c-4.176,2.764-9.039,4.225-14.063,4.225h-2.4c-9.156,0-17.25-5.836-20.145-14.535
		c-1.483-4.431-4.192-8.313-7.852-11.238c-3.658-2.91-8.04-4.695-12.672-5.162c-1.231-0.124-2.389-0.609-3.347-1.404
		c-0.949-0.787-1.63-1.823-1.975-3.014l-1.6-5.481c3.195-1.794,5.86-4.521,7.517-7.906l0.951-1.942c0.927-1.895,2.89-3.119,5-3.119
		c10.109,0,18.333-8.224,18.333-18.333c0-10.109-8.224-18.333-18.333-18.333h-49.333c-10.109,0-18.333,8.224-18.333,18.333
		c0,10.109,8.225,18.333,18.333,18.333c2.109,0,4.072,1.224,5,3.119l0.951,1.942c1.657,3.385,4.322,6.112,7.518,7.906l-1.602,5.486
		c-0.707,2.426-2.795,4.158-5.321,4.412c-4.631,0.466-9.013,2.251-12.687,5.174c-3.644,2.912-6.354,6.794-7.844,11.247
		c-1.407,4.241-4.078,7.874-7.724,10.505c-3.633,2.622-7.926,4.008-12.413,4.008h-2.4c-10.243,0-19.459-6.093-23.477-15.51
		c-1.355-3.191-2.043-6.559-2.043-10.01c0-3.963,0.945-7.94,2.726-11.487c3.791-7.517,9.586-13.829,16.759-18.253
		c4.23-2.609,5.544-8.154,2.935-12.385c-2.609-4.231-8.155-5.545-12.385-2.935c-10.006,6.172-18.09,14.978-23.388,25.481
		c-3.04,6.055-4.647,12.825-4.647,19.578c0,5.884,1.169,11.62,3.481,17.061c6.856,16.073,22.572,26.459,40.038,26.459h2.4
		c8.292,0,16.228-2.563,22.946-7.412c0.893-0.644,1.749-1.326,2.577-2.034c8.781,8.589,20.583,13.496,33.266,13.496
		c12.679,0,24.477-4.903,33.257-13.487c6.943,5.952,15.92,9.437,25.534,9.437h2.4c8.567,0,16.866-2.495,23.997-7.215
		c7.152-4.733,12.7-11.391,16.044-19.25c5.029-11.814,4.602-25.169-1.172-36.641C316.504,305.289,311.093,303.502,306.653,305.736z
		 M194.011,283.035c-0.184,0-0.333-0.149-0.333-0.333s0.149-0.333,0.333-0.333h49.333c0.184,0,0.333,0.15,0.333,0.333
		s-0.149,0.333-0.333,0.333c-8.931,0-17.24,5.183-21.167,13.205l-0.951,1.942c-0.056,0.115-0.171,0.187-0.299,0.187h-4.5
		c-0.128,0-0.243-0.072-0.299-0.187l-0.951-1.942C211.251,288.218,202.943,283.035,194.011,283.035z M218.678,358.885
		c-8.806,0-16.926-3.806-22.522-10.352c0.339-0.829,0.663-1.666,0.947-2.523c0.38-1.137,1.073-2.131,1.988-2.863
		c0.95-0.756,2.081-1.219,3.269-1.338c6.555-0.66,12.358-3.877,16.328-8.749c0.977,1.191,2.072,2.294,3.277,3.293
		c3.722,3.086,8.229,4.972,13.032,5.456c1.188,0.12,2.319,0.583,3.253,1.326c0.93,0.744,1.623,1.738,1.999,2.861
		c0.287,0.863,0.607,1.707,0.949,2.538C235.603,355.08,227.484,358.885,218.678,358.885z"/>
</g>
<g>
</g>
<g>
</g>
<g>
</g>
<g>
</g>
<g>
</g>
<g>
</g>
<g>
</g>
<g>
</g>
<g>
</g>
<g>
</g>
<g>
</g>
<g>
</g>
<g>
</g>
<g>
</g>
<g>
</g>
</svg>
